<mxfile host="app.diagrams.net" modified="2024-03-13T14:26:28.552Z" agent="Mozilla/5.0 (X11; Linux x86_64) AppleWebKit/537.36 (KHTML, like Gecko) Chrome/122.0.0.0 Safari/537.36" etag="Y5QZ1XYYPHffg9hWN1tB" version="24.0.5" type="device">
  <diagram name="Page-1" id="-QL2vMFQWW5ThcARJzX8">
    <mxGraphModel dx="1195" dy="655" grid="1" gridSize="10" guides="1" tooltips="1" connect="1" arrows="1" fold="1" page="1" pageScale="1" pageWidth="827" pageHeight="1169" math="0" shadow="0">
      <root>
        <mxCell id="0" />
        <mxCell id="1" parent="0" />
        <mxCell id="dvUqUEZoBv8NehINJM0M-3" value="" style="edgeStyle=orthogonalEdgeStyle;rounded=0;orthogonalLoop=1;jettySize=auto;html=1;" edge="1" parent="1" source="dvUqUEZoBv8NehINJM0M-1" target="dvUqUEZoBv8NehINJM0M-2">
          <mxGeometry relative="1" as="geometry" />
        </mxCell>
        <mxCell id="dvUqUEZoBv8NehINJM0M-20" style="edgeStyle=orthogonalEdgeStyle;rounded=0;orthogonalLoop=1;jettySize=auto;html=1;exitX=0.25;exitY=1;exitDx=0;exitDy=0;entryX=0.5;entryY=0;entryDx=0;entryDy=0;" edge="1" parent="1" source="dvUqUEZoBv8NehINJM0M-1" target="dvUqUEZoBv8NehINJM0M-8">
          <mxGeometry relative="1" as="geometry" />
        </mxCell>
        <mxCell id="dvUqUEZoBv8NehINJM0M-21" style="edgeStyle=orthogonalEdgeStyle;rounded=0;orthogonalLoop=1;jettySize=auto;html=1;exitX=0.75;exitY=1;exitDx=0;exitDy=0;" edge="1" parent="1" source="dvUqUEZoBv8NehINJM0M-1" target="dvUqUEZoBv8NehINJM0M-6">
          <mxGeometry relative="1" as="geometry" />
        </mxCell>
        <mxCell id="dvUqUEZoBv8NehINJM0M-1" value="main_hall" style="rounded=1;whiteSpace=wrap;html=1;" vertex="1" parent="1">
          <mxGeometry x="340" y="100" width="120" height="60" as="geometry" />
        </mxCell>
        <mxCell id="dvUqUEZoBv8NehINJM0M-15" value="" style="edgeStyle=orthogonalEdgeStyle;rounded=0;orthogonalLoop=1;jettySize=auto;html=1;" edge="1" parent="1" source="dvUqUEZoBv8NehINJM0M-2" target="dvUqUEZoBv8NehINJM0M-14">
          <mxGeometry relative="1" as="geometry" />
        </mxCell>
        <mxCell id="dvUqUEZoBv8NehINJM0M-23" style="edgeStyle=orthogonalEdgeStyle;rounded=0;orthogonalLoop=1;jettySize=auto;html=1;exitX=0.75;exitY=1;exitDx=0;exitDy=0;" edge="1" parent="1" source="dvUqUEZoBv8NehINJM0M-2">
          <mxGeometry relative="1" as="geometry">
            <mxPoint x="570" y="380" as="targetPoint" />
          </mxGeometry>
        </mxCell>
        <mxCell id="dvUqUEZoBv8NehINJM0M-2" value="mysterious_atrium" style="whiteSpace=wrap;html=1;rounded=1;" vertex="1" parent="1">
          <mxGeometry x="340" y="240" width="120" height="60" as="geometry" />
        </mxCell>
        <mxCell id="dvUqUEZoBv8NehINJM0M-11" value="" style="edgeStyle=orthogonalEdgeStyle;rounded=0;orthogonalLoop=1;jettySize=auto;html=1;" edge="1" parent="1" source="dvUqUEZoBv8NehINJM0M-6" target="dvUqUEZoBv8NehINJM0M-10">
          <mxGeometry relative="1" as="geometry" />
        </mxCell>
        <mxCell id="dvUqUEZoBv8NehINJM0M-22" style="edgeStyle=orthogonalEdgeStyle;rounded=0;orthogonalLoop=1;jettySize=auto;html=1;exitX=0.75;exitY=1;exitDx=0;exitDy=0;" edge="1" parent="1" source="dvUqUEZoBv8NehINJM0M-6" target="dvUqUEZoBv8NehINJM0M-12">
          <mxGeometry relative="1" as="geometry" />
        </mxCell>
        <mxCell id="dvUqUEZoBv8NehINJM0M-6" value="hidden_garden" style="whiteSpace=wrap;html=1;rounded=1;" vertex="1" parent="1">
          <mxGeometry x="680" y="240" width="120" height="60" as="geometry" />
        </mxCell>
        <mxCell id="dvUqUEZoBv8NehINJM0M-8" value="grand_library" style="whiteSpace=wrap;html=1;rounded=1;" vertex="1" parent="1">
          <mxGeometry x="30" y="240" width="120" height="60" as="geometry" />
        </mxCell>
        <mxCell id="dvUqUEZoBv8NehINJM0M-10" value="pond&lt;div&gt;healing&lt;/div&gt;" style="whiteSpace=wrap;html=1;rounded=1;" vertex="1" parent="1">
          <mxGeometry x="680" y="380" width="120" height="60" as="geometry" />
        </mxCell>
        <mxCell id="dvUqUEZoBv8NehINJM0M-12" value="surr flora&lt;div&gt;rare herb&lt;/div&gt;" style="whiteSpace=wrap;html=1;rounded=1;" vertex="1" parent="1">
          <mxGeometry x="840" y="380" width="120" height="60" as="geometry" />
        </mxCell>
        <mxCell id="dvUqUEZoBv8NehINJM0M-14" value="read runes&lt;div&gt;hint key&lt;/div&gt;" style="whiteSpace=wrap;html=1;rounded=1;" vertex="1" parent="1">
          <mxGeometry x="340" y="380" width="120" height="60" as="geometry" />
        </mxCell>
        <mxCell id="dvUqUEZoBv8NehINJM0M-24" value="read runes&lt;div&gt;hint key&lt;/div&gt;" style="whiteSpace=wrap;html=1;rounded=1;" vertex="1" parent="1">
          <mxGeometry x="510" y="380" width="120" height="60" as="geometry" />
        </mxCell>
      </root>
    </mxGraphModel>
  </diagram>
</mxfile>
